<svg width="398" height="532" viewBox="0 0 398 532" fill="none" xmlns="http://www.w3.org/2000/svg">
<g filter="url(#filter0_dddddd)">
<rect x="89.7979" y="47.6569" width="144" height="304" rx="16" transform="rotate(-15 89.7979 47.6569)" fill="#FAFAFD"/>
<g filter="url(#filter1_ii)">
<path d="M168.927 297.697C167.784 293.429 170.316 289.042 174.584 287.899L228.676 273.405C232.944 272.261 237.33 274.794 238.474 279.062L242.615 294.516C243.759 298.784 241.226 303.171 236.958 304.314L175.139 320.879L168.927 297.697Z" fill="#9378FF"/>
<path d="M200.798 231.181C199.654 226.914 202.187 222.527 206.455 221.383L260.547 206.89C264.814 205.746 269.201 208.279 270.345 212.546L278.627 243.456L216.807 260.02C212.54 261.164 208.153 258.631 207.01 254.364L200.798 231.181Z" fill="#C7B9FF"/>
<path d="M114.834 95.8181C113.691 91.5503 116.223 87.1636 120.491 86.0201L174.583 71.5262C178.851 70.3827 183.237 72.9154 184.381 77.1831L192.922 109.059C194.065 113.326 191.533 117.713 187.265 118.857L125.446 135.421L114.834 95.8181Z" fill="#9378FF"/>
<path d="M144.081 204.968C142.937 200.7 145.47 196.313 149.738 195.17L203.829 180.676C208.097 179.532 212.484 182.065 213.627 186.333L215.698 194.06C216.841 198.328 214.309 202.715 210.041 203.858L148.222 220.423L144.081 204.968Z" fill="#9378FF"/>
<path d="M178.022 146.18C176.878 141.912 179.411 137.526 183.679 136.382L237.77 121.888C242.038 120.745 246.425 123.277 247.568 127.545L253.78 150.727L191.961 167.292C187.693 168.435 183.306 165.902 182.163 161.635L178.022 146.18Z" fill="#C7B9FF"/>
<path d="M147.481 32.2007C146.338 27.933 148.87 23.5463 153.138 22.4027L207.23 7.90888C211.498 6.76534 215.884 9.298 217.028 13.5657L224.533 41.5776L162.714 58.142C158.447 59.2855 154.06 56.7529 152.916 52.4851L147.481 32.2007Z" fill="url(#paint0_linear)"/>
</g>
<path fill-rule="evenodd" clip-rule="evenodd" d="M197.709 18.7421L213.436 14.528C221.972 12.2409 230.745 17.3063 233.032 25.8417L303.431 288.574C305.718 297.109 300.653 305.882 292.117 308.169L183.934 337.157C175.398 339.444 166.625 334.379 164.338 325.843L93.9391 63.1117C91.652 54.5762 96.7173 45.8028 105.253 43.5157L120.435 39.4476C121.579 43.7153 125.965 46.248 130.233 45.1045L192.052 28.5401C196.32 27.3965 198.853 23.0098 197.709 18.7421ZM187.911 13.0852L211.366 6.80061C224.169 3.37001 237.329 10.968 240.76 23.7712L311.159 286.503C314.589 299.306 306.991 312.466 294.188 315.897L186.004 344.885C173.201 348.315 160.041 340.717 156.61 327.914L86.2117 65.1822C82.7811 52.379 90.379 39.2189 103.182 35.7883L126.092 29.6497L187.911 13.0852Z" fill="#120E21"/>
</g>
<defs>
<filter id="filter0_dddddd" x="0" y="0.588959" width="397.37" height="530.507" filterUnits="userSpaceOnUse" color-interpolation-filters="sRGB">
<feFlood flood-opacity="0" result="BackgroundImageFix"/>
<feColorMatrix in="SourceAlpha" type="matrix" values="0 0 0 0 0 0 0 0 0 0 0 0 0 0 0 0 0 0 127 0"/>
<feOffset dy="2.76726"/>
<feGaussianBlur stdDeviation="1.1069"/>
<feColorMatrix type="matrix" values="0 0 0 0 0.0705882 0 0 0 0 0.054902 0 0 0 0 0.129412 0 0 0 0.0196802 0"/>
<feBlend mode="normal" in2="BackgroundImageFix" result="effect1_dropShadow"/>
<feColorMatrix in="SourceAlpha" type="matrix" values="0 0 0 0 0 0 0 0 0 0 0 0 0 0 0 0 0 0 127 0"/>
<feOffset dy="6.6501"/>
<feGaussianBlur stdDeviation="2.66004"/>
<feColorMatrix type="matrix" values="0 0 0 0 0.0705882 0 0 0 0 0.054902 0 0 0 0 0.129412 0 0 0 0.0282725 0"/>
<feBlend mode="normal" in2="effect1_dropShadow" result="effect2_dropShadow"/>
<feColorMatrix in="SourceAlpha" type="matrix" values="0 0 0 0 0 0 0 0 0 0 0 0 0 0 0 0 0 0 127 0"/>
<feOffset dy="12.5216"/>
<feGaussianBlur stdDeviation="5.00862"/>
<feColorMatrix type="matrix" values="0 0 0 0 0.0705882 0 0 0 0 0.054902 0 0 0 0 0.129412 0 0 0 0.035 0"/>
<feBlend mode="normal" in2="effect2_dropShadow" result="effect3_dropShadow"/>
<feColorMatrix in="SourceAlpha" type="matrix" values="0 0 0 0 0 0 0 0 0 0 0 0 0 0 0 0 0 0 127 0"/>
<feOffset dy="22.3363"/>
<feGaussianBlur stdDeviation="8.93452"/>
<feColorMatrix type="matrix" values="0 0 0 0 0.0705882 0 0 0 0 0.054902 0 0 0 0 0.129412 0 0 0 0.0417275 0"/>
<feBlend mode="normal" in2="effect3_dropShadow" result="effect4_dropShadow"/>
<feColorMatrix in="SourceAlpha" type="matrix" values="0 0 0 0 0 0 0 0 0 0 0 0 0 0 0 0 0 0 127 0"/>
<feOffset dy="41.7776"/>
<feGaussianBlur stdDeviation="16.711"/>
<feColorMatrix type="matrix" values="0 0 0 0 0.0705882 0 0 0 0 0.054902 0 0 0 0 0.129412 0 0 0 0.0503198 0"/>
<feBlend mode="normal" in2="effect4_dropShadow" result="effect5_dropShadow"/>
<feColorMatrix in="SourceAlpha" type="matrix" values="0 0 0 0 0 0 0 0 0 0 0 0 0 0 0 0 0 0 127 0"/>
<feOffset dy="100"/>
<feGaussianBlur stdDeviation="40"/>
<feColorMatrix type="matrix" values="0 0 0 0 0.0705882 0 0 0 0 0.054902 0 0 0 0 0.129412 0 0 0 0.07 0"/>
<feBlend mode="normal" in2="effect5_dropShadow" result="effect6_dropShadow"/>
<feBlend mode="normal" in="SourceGraphic" in2="effect6_dropShadow" result="shape"/>
</filter>
<filter id="filter1_ii" x="104.764" y="-2.16168" width="177.863" height="331.04" filterUnits="userSpaceOnUse" color-interpolation-filters="sRGB">
<feFlood flood-opacity="0" result="BackgroundImageFix"/>
<feBlend mode="normal" in="SourceGraphic" in2="BackgroundImageFix" result="shape"/>
<feColorMatrix in="SourceAlpha" type="matrix" values="0 0 0 0 0 0 0 0 0 0 0 0 0 0 0 0 0 0 127 0" result="hardAlpha"/>
<feOffset dx="-8" dy="8"/>
<feGaussianBlur stdDeviation="12"/>
<feComposite in2="hardAlpha" operator="arithmetic" k2="-1" k3="1"/>
<feColorMatrix type="matrix" values="0 0 0 0 1 0 0 0 0 1 0 0 0 0 1 0 0 0 0.56 0"/>
<feBlend mode="normal" in2="shape" result="effect1_innerShadow"/>
<feColorMatrix in="SourceAlpha" type="matrix" values="0 0 0 0 0 0 0 0 0 0 0 0 0 0 0 0 0 0 127 0" result="hardAlpha"/>
<feOffset dx="4" dy="-8"/>
<feGaussianBlur stdDeviation="8"/>
<feComposite in2="hardAlpha" operator="arithmetic" k2="-1" k3="1"/>
<feColorMatrix type="matrix" values="0 0 0 0 0 0 0 0 0 0 0 0 0 0 0 0 0 0 0.04 0"/>
<feBlend mode="normal" in2="effect1_innerShadow" result="effect2_innerShadow"/>
</filter>
<linearGradient id="paint0_linear" x1="182.384" y1="23.3662" x2="189.76" y2="50.8951" gradientUnits="userSpaceOnUse">
<stop stop-color="#C7B9FF" stop-opacity="0.08"/>
<stop offset="1" stop-color="#C7B9FF"/>
</linearGradient>
</defs>
</svg>
