<svg width="631" height="551" viewBox="0 0 631 551" fill="none" xmlns="http://www.w3.org/2000/svg">
<g filter="url(#filter0_f)">
<circle cx="315.5" cy="315.5" r="155.5" fill="white" fill-opacity="0.4"/>
</g>
<path opacity="0.16" fill-rule="evenodd" clip-rule="evenodd" d="M200.34 348.361C198.866 347.091 197.439 345.769 196.06 344.398L195.674 344.041C195.67 344.037 195.673 344.031 195.678 344.031C195.684 344.031 195.686 344.024 195.682 344.02C181.04 329.275 172 309.005 172 286.633C172 241.548 208.713 205 254 205C275.305 205 294.711 217.271 309.291 231.619C312.711 234.985 318.288 234.985 321.708 231.619C336.288 217.271 355.695 205 377 205C422.287 205 459 241.548 459 286.633C459 309.005 449.96 329.276 435.317 344.021C435.314 344.025 435.316 344.031 435.321 344.031C435.326 344.031 435.329 344.037 435.325 344.04L434.958 344.381C433.568 345.763 432.128 347.096 430.642 348.377L320.935 449.967C317.868 452.807 313.131 452.807 310.064 449.967L200.34 348.361Z" fill="url(#paint0_linear)"/>
<g filter="url(#filter1_dddddd)">
<g filter="url(#filter2_iii)">
<path fill-rule="evenodd" clip-rule="evenodd" d="M242.126 341.751C241.184 340.938 240.271 340.092 239.389 339.215L239.142 338.986C239.14 338.984 239.141 338.98 239.145 338.98C239.148 338.98 239.15 338.976 239.147 338.973C229.782 329.536 224 316.563 224 302.245C224 273.391 247.482 250 276.447 250C288.952 250 300.434 256.613 309.447 264.799C313 268.026 318.565 268.026 322.118 264.799C331.131 256.613 342.614 250 355.118 250C384.084 250 407.566 273.391 407.566 302.245C407.566 316.563 401.784 329.536 392.418 338.973C392.416 338.976 392.418 338.98 392.421 338.98C392.424 338.98 392.426 338.984 392.423 338.986L392.188 339.204C391.299 340.088 390.378 340.942 389.428 341.761L321.22 404.962C318.152 407.804 313.413 407.804 310.345 404.962L242.126 341.751Z" fill="#9A80FD"/>
</g>
</g>
<defs>
<filter id="filter0_f" x="0" y="0" width="631" height="631" filterUnits="userSpaceOnUse" color-interpolation-filters="sRGB">
<feFlood flood-opacity="0" result="BackgroundImageFix"/>
<feBlend mode="normal" in="SourceGraphic" in2="BackgroundImageFix" result="shape"/>
<feGaussianBlur stdDeviation="80" result="effect1_foregroundBlur"/>
</filter>
<filter id="filter1_dddddd" x="144" y="250" width="343.566" height="337.094" filterUnits="userSpaceOnUse" color-interpolation-filters="sRGB">
<feFlood flood-opacity="0" result="BackgroundImageFix"/>
<feColorMatrix in="SourceAlpha" type="matrix" values="0 0 0 0 0 0 0 0 0 0 0 0 0 0 0 0 0 0 127 0"/>
<feOffset dy="2.76726"/>
<feGaussianBlur stdDeviation="1.1069"/>
<feColorMatrix type="matrix" values="0 0 0 0 0.603922 0 0 0 0 0.501961 0 0 0 0 0.992157 0 0 0 0.0196802 0"/>
<feBlend mode="normal" in2="BackgroundImageFix" result="effect1_dropShadow"/>
<feColorMatrix in="SourceAlpha" type="matrix" values="0 0 0 0 0 0 0 0 0 0 0 0 0 0 0 0 0 0 127 0"/>
<feOffset dy="6.6501"/>
<feGaussianBlur stdDeviation="2.66004"/>
<feColorMatrix type="matrix" values="0 0 0 0 0.603922 0 0 0 0 0.501961 0 0 0 0 0.992157 0 0 0 0.0282725 0"/>
<feBlend mode="normal" in2="effect1_dropShadow" result="effect2_dropShadow"/>
<feColorMatrix in="SourceAlpha" type="matrix" values="0 0 0 0 0 0 0 0 0 0 0 0 0 0 0 0 0 0 127 0"/>
<feOffset dy="12.5216"/>
<feGaussianBlur stdDeviation="5.00862"/>
<feColorMatrix type="matrix" values="0 0 0 0 0.603922 0 0 0 0 0.501961 0 0 0 0 0.992157 0 0 0 0.035 0"/>
<feBlend mode="normal" in2="effect2_dropShadow" result="effect3_dropShadow"/>
<feColorMatrix in="SourceAlpha" type="matrix" values="0 0 0 0 0 0 0 0 0 0 0 0 0 0 0 0 0 0 127 0"/>
<feOffset dy="22.3363"/>
<feGaussianBlur stdDeviation="8.93452"/>
<feColorMatrix type="matrix" values="0 0 0 0 0.603922 0 0 0 0 0.501961 0 0 0 0 0.992157 0 0 0 0.0417275 0"/>
<feBlend mode="normal" in2="effect3_dropShadow" result="effect4_dropShadow"/>
<feColorMatrix in="SourceAlpha" type="matrix" values="0 0 0 0 0 0 0 0 0 0 0 0 0 0 0 0 0 0 127 0"/>
<feOffset dy="41.7776"/>
<feGaussianBlur stdDeviation="16.711"/>
<feColorMatrix type="matrix" values="0 0 0 0 0.603922 0 0 0 0 0.501961 0 0 0 0 0.992157 0 0 0 0.0503198 0"/>
<feBlend mode="normal" in2="effect4_dropShadow" result="effect5_dropShadow"/>
<feColorMatrix in="SourceAlpha" type="matrix" values="0 0 0 0 0 0 0 0 0 0 0 0 0 0 0 0 0 0 127 0"/>
<feOffset dy="100"/>
<feGaussianBlur stdDeviation="40"/>
<feColorMatrix type="matrix" values="0 0 0 0 0.603922 0 0 0 0 0.501961 0 0 0 0 0.992157 0 0 0 0.07 0"/>
<feBlend mode="normal" in2="effect5_dropShadow" result="effect6_dropShadow"/>
<feBlend mode="normal" in="SourceGraphic" in2="effect6_dropShadow" result="shape"/>
</filter>
<filter id="filter2_iii" x="200" y="210" width="247.566" height="221.094" filterUnits="userSpaceOnUse" color-interpolation-filters="sRGB">
<feFlood flood-opacity="0" result="BackgroundImageFix"/>
<feBlend mode="normal" in="SourceGraphic" in2="BackgroundImageFix" result="shape"/>
<feColorMatrix in="SourceAlpha" type="matrix" values="0 0 0 0 0 0 0 0 0 0 0 0 0 0 0 0 0 0 127 0" result="hardAlpha"/>
<feOffset dx="40" dy="-40"/>
<feGaussianBlur stdDeviation="20"/>
<feComposite in2="hardAlpha" operator="arithmetic" k2="-1" k3="1"/>
<feColorMatrix type="matrix" values="0 0 0 0 0 0 0 0 0 0 0 0 0 0 0 0 0 0 0.08 0"/>
<feBlend mode="normal" in2="shape" result="effect1_innerShadow"/>
<feColorMatrix in="SourceAlpha" type="matrix" values="0 0 0 0 0 0 0 0 0 0 0 0 0 0 0 0 0 0 127 0" result="hardAlpha"/>
<feOffset dx="-16" dy="16"/>
<feGaussianBlur stdDeviation="20"/>
<feComposite in2="hardAlpha" operator="arithmetic" k2="-1" k3="1"/>
<feColorMatrix type="matrix" values="0 0 0 0 1 0 0 0 0 1 0 0 0 0 1 0 0 0 0.25 0"/>
<feBlend mode="normal" in2="effect1_innerShadow" result="effect2_innerShadow"/>
<feColorMatrix in="SourceAlpha" type="matrix" values="0 0 0 0 0 0 0 0 0 0 0 0 0 0 0 0 0 0 127 0" result="hardAlpha"/>
<feOffset dx="-24" dy="24"/>
<feGaussianBlur stdDeviation="40"/>
<feComposite in2="hardAlpha" operator="arithmetic" k2="-1" k3="1"/>
<feColorMatrix type="matrix" values="0 0 0 0 1 0 0 0 0 1 0 0 0 0 1 0 0 0 0.4 0"/>
<feBlend mode="normal" in2="effect2_innerShadow" result="effect3_innerShadow"/>
</filter>
<linearGradient id="paint0_linear" x1="315.5" y1="124" x2="315.5" y2="468.5" gradientUnits="userSpaceOnUse">
<stop stop-color="#9A80FD"/>
<stop offset="1" stop-color="#9A80FD" stop-opacity="0"/>
</linearGradient>
</defs>
</svg>
