<svg width="338" height="602" viewBox="0 0 338 602" fill="none" xmlns="http://www.w3.org/2000/svg">
<g filter="url(#filter0_ddddddiii)">
<path fill-rule="evenodd" clip-rule="evenodd" d="M249.125 222.353C256.252 222.353 259.822 213.736 254.782 208.696L174.429 128.343C171.305 125.219 166.239 125.219 163.115 128.343L82.7623 208.696C77.7225 213.736 81.2919 222.353 88.4191 222.353H111.403C115.821 222.353 119.403 225.935 119.403 230.353V414C119.403 418.418 122.985 422 127.403 422H210.403C214.821 422 218.403 418.418 218.403 414V230.353C218.403 225.935 221.985 222.353 226.403 222.353H249.125Z" fill="#9A80FD"/>
</g>
<line x1="275.403" y1="88" x2="275.403" y2="431" stroke="url(#paint0_linear)" stroke-width="4" stroke-linecap="round" stroke-linejoin="round"/>
<line x1="66.4031" y1="88" x2="66.4031" y2="431" stroke="url(#paint1_linear)" stroke-width="4" stroke-linecap="round" stroke-linejoin="round"/>
<g filter="url(#filter1_dii)">
<path d="M158.083 69.2178C159.202 69.5176 160.04 70.1512 160.599 71.1186C161.171 72.035 161.307 73.0528 161.007 74.1717C160.707 75.2907 160.074 76.1294 159.107 76.688C158.139 77.2465 157.096 77.3758 155.977 77.076L145.296 74.214L142.414 84.9713C142.114 86.0903 141.48 86.929 140.513 87.4875C139.559 87.9952 138.523 88.0991 137.404 87.7993C136.285 87.4994 135.439 86.8913 134.867 85.9748C134.309 85.0074 134.179 83.9643 134.479 82.8453L137.362 72.088L126.68 69.226C125.562 68.9262 124.723 68.2926 124.164 67.3252C123.606 66.3578 123.476 65.3147 123.776 64.1957C124.076 63.0767 124.703 62.2634 125.657 61.7558C126.624 61.1973 127.667 61.068 128.786 61.3678L139.467 64.2298L142.35 53.4724C142.649 52.3535 143.283 51.5147 144.25 50.9562C145.218 50.3977 146.261 50.2684 147.38 50.5682C148.499 50.868 149.338 51.5016 149.896 52.469C150.455 53.4363 150.584 54.4795 150.284 55.5985L147.402 66.3558L158.083 69.2178Z" fill="#120E21"/>
<path d="M200.543 98.012C204.255 99.0069 205.689 101.081 204.845 104.235C203.986 107.439 201.7 108.544 197.987 107.549L171.895 100.557C168.131 99.5488 166.679 97.4424 167.537 94.2381C168.382 91.0846 170.687 90.0121 174.45 91.0206L181.546 92.9218L189.907 61.7179L182.109 63.9625C181.224 64.2158 180.4 64.2403 179.637 64.0359C178.365 63.6951 177.415 62.8681 176.785 61.5547C176.207 60.2549 176.095 58.9438 176.449 57.6214C176.926 55.8412 178.076 54.7046 179.898 54.2115L193.894 50.1936C195.96 49.6025 197.884 49.5455 199.664 50.0225C201.342 50.4722 202.572 51.3742 203.354 52.7285C204.15 54.032 204.309 55.5738 203.832 57.3539L193.447 96.1109L200.543 98.012Z" fill="#120E21"/>
</g>
<line x1="243.403" y1="3" x2="243.403" y2="346" stroke="url(#paint2_linear)" stroke-width="4" stroke-linecap="round" stroke-linejoin="round"/>
<line x1="98.4031" y1="3" x2="98.4031" y2="346" stroke="url(#paint3_linear)" stroke-width="4" stroke-linecap="round" stroke-linejoin="round"/>
<defs>
<filter id="filter0_ddddddiii" x="0.403076" y="102" width="336.738" height="500" filterUnits="userSpaceOnUse" color-interpolation-filters="sRGB">
<feFlood flood-opacity="0" result="BackgroundImageFix"/>
<feColorMatrix in="SourceAlpha" type="matrix" values="0 0 0 0 0 0 0 0 0 0 0 0 0 0 0 0 0 0 127 0"/>
<feOffset dy="2.76726"/>
<feGaussianBlur stdDeviation="1.1069"/>
<feColorMatrix type="matrix" values="0 0 0 0 0.603922 0 0 0 0 0.501961 0 0 0 0 0.992157 0 0 0 0.0196802 0"/>
<feBlend mode="normal" in2="BackgroundImageFix" result="effect1_dropShadow"/>
<feColorMatrix in="SourceAlpha" type="matrix" values="0 0 0 0 0 0 0 0 0 0 0 0 0 0 0 0 0 0 127 0"/>
<feOffset dy="6.6501"/>
<feGaussianBlur stdDeviation="2.66004"/>
<feColorMatrix type="matrix" values="0 0 0 0 0.603922 0 0 0 0 0.501961 0 0 0 0 0.992157 0 0 0 0.0282725 0"/>
<feBlend mode="normal" in2="effect1_dropShadow" result="effect2_dropShadow"/>
<feColorMatrix in="SourceAlpha" type="matrix" values="0 0 0 0 0 0 0 0 0 0 0 0 0 0 0 0 0 0 127 0"/>
<feOffset dy="12.5216"/>
<feGaussianBlur stdDeviation="5.00862"/>
<feColorMatrix type="matrix" values="0 0 0 0 0.603922 0 0 0 0 0.501961 0 0 0 0 0.992157 0 0 0 0.035 0"/>
<feBlend mode="normal" in2="effect2_dropShadow" result="effect3_dropShadow"/>
<feColorMatrix in="SourceAlpha" type="matrix" values="0 0 0 0 0 0 0 0 0 0 0 0 0 0 0 0 0 0 127 0"/>
<feOffset dy="22.3363"/>
<feGaussianBlur stdDeviation="8.93452"/>
<feColorMatrix type="matrix" values="0 0 0 0 0.603922 0 0 0 0 0.501961 0 0 0 0 0.992157 0 0 0 0.0417275 0"/>
<feBlend mode="normal" in2="effect3_dropShadow" result="effect4_dropShadow"/>
<feColorMatrix in="SourceAlpha" type="matrix" values="0 0 0 0 0 0 0 0 0 0 0 0 0 0 0 0 0 0 127 0"/>
<feOffset dy="41.7776"/>
<feGaussianBlur stdDeviation="16.711"/>
<feColorMatrix type="matrix" values="0 0 0 0 0.603922 0 0 0 0 0.501961 0 0 0 0 0.992157 0 0 0 0.0503198 0"/>
<feBlend mode="normal" in2="effect4_dropShadow" result="effect5_dropShadow"/>
<feColorMatrix in="SourceAlpha" type="matrix" values="0 0 0 0 0 0 0 0 0 0 0 0 0 0 0 0 0 0 127 0"/>
<feOffset dy="100"/>
<feGaussianBlur stdDeviation="40"/>
<feColorMatrix type="matrix" values="0 0 0 0 0.603922 0 0 0 0 0.501961 0 0 0 0 0.992157 0 0 0 0.07 0"/>
<feBlend mode="normal" in2="effect5_dropShadow" result="effect6_dropShadow"/>
<feBlend mode="normal" in="SourceGraphic" in2="effect6_dropShadow" result="shape"/>
<feColorMatrix in="SourceAlpha" type="matrix" values="0 0 0 0 0 0 0 0 0 0 0 0 0 0 0 0 0 0 127 0" result="hardAlpha"/>
<feOffset dx="16" dy="-24"/>
<feGaussianBlur stdDeviation="20"/>
<feComposite in2="hardAlpha" operator="arithmetic" k2="-1" k3="1"/>
<feColorMatrix type="matrix" values="0 0 0 0 0 0 0 0 0 0 0 0 0 0 0 0 0 0 0.16 0"/>
<feBlend mode="normal" in2="shape" result="effect7_innerShadow"/>
<feColorMatrix in="SourceAlpha" type="matrix" values="0 0 0 0 0 0 0 0 0 0 0 0 0 0 0 0 0 0 127 0" result="hardAlpha"/>
<feOffset dx="-24" dy="-24"/>
<feGaussianBlur stdDeviation="20"/>
<feComposite in2="hardAlpha" operator="arithmetic" k2="-1" k3="1"/>
<feColorMatrix type="matrix" values="0 0 0 0 1 0 0 0 0 1 0 0 0 0 1 0 0 0 0.25 0"/>
<feBlend mode="normal" in2="effect7_innerShadow" result="effect8_innerShadow"/>
<feColorMatrix in="SourceAlpha" type="matrix" values="0 0 0 0 0 0 0 0 0 0 0 0 0 0 0 0 0 0 127 0" result="hardAlpha"/>
<feOffset dx="-8" dy="8"/>
<feGaussianBlur stdDeviation="20"/>
<feComposite in2="hardAlpha" operator="arithmetic" k2="-1" k3="1"/>
<feColorMatrix type="matrix" values="0 0 0 0 1 0 0 0 0 1 0 0 0 0 1 0 0 0 0.4 0"/>
<feBlend mode="normal" in2="effect8_innerShadow" result="effect9_innerShadow"/>
</filter>
<filter id="filter1_dii" x="85.9092" y="0" width="164.141" height="141.041" filterUnits="userSpaceOnUse" color-interpolation-filters="sRGB">
<feFlood flood-opacity="0" result="BackgroundImageFix"/>
<feColorMatrix in="SourceAlpha" type="matrix" values="0 0 0 0 0 0 0 0 0 0 0 0 0 0 0 0 0 0 127 0"/>
<feOffset/>
<feGaussianBlur stdDeviation="16"/>
<feColorMatrix type="matrix" values="0 0 0 0 0.752941 0 0 0 0 0.790949 0 0 0 0 0.996078 0 0 0 1 0"/>
<feBlend mode="normal" in2="BackgroundImageFix" result="effect1_dropShadow"/>
<feBlend mode="normal" in="SourceGraphic" in2="effect1_dropShadow" result="shape"/>
<feColorMatrix in="SourceAlpha" type="matrix" values="0 0 0 0 0 0 0 0 0 0 0 0 0 0 0 0 0 0 127 0" result="hardAlpha"/>
<feOffset dx="-4" dy="4"/>
<feGaussianBlur stdDeviation="8"/>
<feComposite in2="hardAlpha" operator="arithmetic" k2="-1" k3="1"/>
<feColorMatrix type="matrix" values="0 0 0 0 1 0 0 0 0 1 0 0 0 0 1 0 0 0 0.16 0"/>
<feBlend mode="normal" in2="shape" result="effect2_innerShadow"/>
<feColorMatrix in="SourceAlpha" type="matrix" values="0 0 0 0 0 0 0 0 0 0 0 0 0 0 0 0 0 0 127 0" result="hardAlpha"/>
<feOffset dx="2" dy="-2"/>
<feGaussianBlur stdDeviation="4"/>
<feComposite in2="hardAlpha" operator="arithmetic" k2="-1" k3="1"/>
<feColorMatrix type="matrix" values="0 0 0 0 0 0 0 0 0 0 0 0 0 0 0 0 0 0 0.04 0"/>
<feBlend mode="normal" in2="effect2_innerShadow" result="effect3_innerShadow"/>
</filter>
<linearGradient id="paint0_linear" x1="272.403" y1="86" x2="272.403" y2="424" gradientUnits="userSpaceOnUse">
<stop stop-color="#9A80FD" stop-opacity="0.4"/>
<stop offset="1" stop-color="#9A80FD" stop-opacity="0"/>
</linearGradient>
<linearGradient id="paint1_linear" x1="63.4034" y1="86" x2="63.4034" y2="424" gradientUnits="userSpaceOnUse">
<stop stop-color="#9A80FD" stop-opacity="0.4"/>
<stop offset="1" stop-color="#9A80FD" stop-opacity="0"/>
</linearGradient>
<linearGradient id="paint2_linear" x1="240.403" y1="1" x2="240.403" y2="339" gradientUnits="userSpaceOnUse">
<stop stop-color="#9A80FD" stop-opacity="0.4"/>
<stop offset="1" stop-color="#9A80FD" stop-opacity="0"/>
</linearGradient>
<linearGradient id="paint3_linear" x1="95.4034" y1="1" x2="95.4034" y2="339" gradientUnits="userSpaceOnUse">
<stop stop-color="#9A80FD" stop-opacity="0.4"/>
<stop offset="1" stop-color="#9A80FD" stop-opacity="0"/>
</linearGradient>
</defs>
</svg>
